<svg width="291" height="291" viewBox="0 0 291 291" fill="none" xmlns="http://www.w3.org/2000/svg">
<path d="M24.4524 122.899C28.9275 120.699 34.1629 120.631 38.9594 121.622C42.5938 122.501 46.4508 124.576 47.823 128.302C49.1952 132.596 48.8985 137.177 48.9047 141.62C44.547 141.602 40.1894 141.62 35.8379 141.614C35.7458 137.925 36.0357 134.217 35.6587 130.54C35.739 127.997 31.2701 128.016 31.3319 130.558C30.8622 136.342 31.2207 142.162 31.11 147.964C31.2151 151.666 30.8436 155.418 31.4253 159.088C31.7838 160.559 33.6134 160.671 34.7692 160.173C35.6587 159.531 35.6778 158.353 35.7706 157.362C35.9127 154.608 35.8015 151.853 35.8385 149.099C40.2017 149.086 44.5594 149.092 48.9232 149.092C48.7934 153.274 49.1643 157.724 47.4212 161.631C44.5285 166.461 38.4958 168.274 33.1801 168.107C28.4948 168.063 23.1297 166.973 20.2184 162.902C18.1354 159.612 18.2096 155.511 18.0427 151.748C18.0736 145.073 17.8202 138.386 18.2776 131.724C18.4692 127.891 21.0776 124.507 24.4524 122.899V122.899ZM55.9387 121.846C62.2681 121.759 68.6037 121.765 74.9331 121.846C77.3375 136.965 79.9088 152.059 82.3565 167.171C78.2832 167.158 74.2099 167.171 70.1366 167.158C69.7781 164.329 69.5123 161.486 69.0734 158.664C67.6203 158.689 66.1621 158.689 64.709 158.682C64.9686 156.152 65.2529 153.622 65.5249 151.092C66.4211 151.092 67.3112 151.085 68.2075 151.085C67.3916 144.61 66.7796 138.104 65.7968 131.654C64.5236 143.507 62.9907 155.33 61.5937 167.171C57.5087 167.165 53.4168 167.165 49.3312 167.165C51.5069 152.059 53.8062 136.965 55.9387 121.846V121.846ZM84.594 121.803C88.9269 121.79 93.266 121.796 97.6051 121.796C97.6113 133.886 97.6051 145.97 97.6113 158.06C100.263 158.073 102.915 158.066 105.566 158.066C105.579 161.101 105.573 164.129 105.573 167.165C98.5817 167.172 91.591 167.159 84.6002 167.165C84.5878 152.046 84.6002 136.921 84.594 121.803V121.803ZM108.663 121.803C113.008 121.79 117.36 121.796 121.711 121.796C121.724 133.886 121.711 145.97 121.717 158.06C124.344 158.073 126.971 158.066 129.598 158.066C129.604 161.101 129.604 164.129 129.604 167.165H108.669C108.657 152.046 108.669 136.921 108.663 121.803V121.803ZM145.786 121.803C151.535 121.759 157.289 121.803 163.031 122.058C166.054 122.276 169.218 122.488 171.914 124.027C174.343 125.498 175.832 128.284 175.857 131.132C176.253 139.021 176.024 146.936 176.049 154.832C175.894 158.091 176.234 161.881 173.892 164.479C171.283 166.884 167.538 167.003 164.194 167.14C158.063 167.209 151.925 167.14 145.786 167.165C145.78 152.046 145.786 136.921 145.786 121.803V121.803ZM158.835 129.605C158.841 139.564 158.841 149.517 158.835 159.475C160.077 159.201 161.968 159.456 162.518 157.973C163.284 154.701 162.876 151.287 162.981 147.946C162.876 142.486 163.211 137.002 162.79 131.549C162.611 129.586 160.275 129.667 158.835 129.605V129.605ZM179.306 121.803C183.633 121.789 187.96 121.803 192.286 121.796C192.293 132.814 192.286 143.833 192.286 154.851C192.312 156.309 192.28 157.78 192.552 159.219C192.75 160.871 195.637 160.796 195.761 159.138C196.051 157.718 196.02 156.259 196.038 154.82C196.026 143.814 196.044 132.808 196.026 121.803C200.353 121.784 204.679 121.803 209.012 121.796C209 132.391 209.05 142.985 208.988 153.573C208.852 156.49 209.173 159.699 207.455 162.236C205.409 165.694 201.435 167.451 197.59 167.862C192.72 168.423 187.423 167.844 183.343 164.89C180.778 163.051 179.437 159.886 179.467 156.756C179.157 145.11 179.374 133.456 179.306 121.803V121.803ZM211.812 121.796H240.387C240.393 124.831 240.387 127.86 240.393 130.895C237.809 130.895 235.226 130.889 232.649 130.901V167.165C228.284 167.165 223.92 167.172 219.557 167.159V130.901C216.986 130.895 214.415 130.889 211.843 130.901C211.788 127.866 211.818 124.831 211.812 121.796ZM242.73 121.796C246.735 121.846 250.741 121.69 254.746 121.877C257.205 130.022 259.895 138.093 262.441 146.213C263.029 148.22 263.992 150.183 263.93 152.321C263.899 157.35 263.924 162.38 263.912 167.408C259.901 167.415 255.895 167.415 251.883 167.408C251.883 162.585 251.866 157.762 251.896 152.932C251.909 151.848 251.84 150.744 251.501 149.703C248.559 140.411 245.659 131.101 242.73 121.796V121.796ZM261.452 121.803C265.432 121.789 269.414 121.803 273.394 121.796C270.587 130.384 267.819 138.984 265.012 147.571C263.232 141.838 261.236 136.16 259.622 130.383C260 127.486 260.872 124.669 261.452 121.803V121.803Z" fill="white"/>
<path d="M128.121 132.677C130.408 131.661 133.832 132.646 134.209 135.426C134.463 138.778 134.487 142.181 134.185 145.534C133.492 149.391 127.095 149.572 126.087 145.833C125.593 142.835 125.871 139.751 125.859 136.722C125.784 135.083 126.545 133.319 128.121 132.677ZM129.679 134.821C129.407 138.529 129.518 142.256 129.611 145.97L130.482 145.683C130.871 142.262 130.754 138.753 130.562 135.32C130.346 135.195 129.901 134.946 129.679 134.821ZM135.563 132.646C137.535 132.64 139.5 132.634 141.466 132.646C141.46 133.674 141.453 134.709 141.453 135.743L139.061 135.762C139.061 136.753 139.055 137.744 139.055 138.735C139.766 138.741 140.483 138.747 141.206 138.76C141.206 139.707 141.206 140.654 141.212 141.601L139.061 141.62C139.061 143.82 139.055 146.013 139.061 148.214C137.893 148.214 136.731 148.22 135.57 148.227C135.563 143.029 135.569 137.837 135.563 132.646Z" fill="white"/>
<path d="M268.603 163.111C269.441 163.111 270.132 163.377 270.674 163.908C271.216 164.44 271.487 165.068 271.487 165.792C271.487 166.529 271.212 167.16 270.661 167.685C270.11 168.21 269.449 168.473 268.676 168.473C267.897 168.473 267.235 168.211 266.686 167.687C266.138 167.163 265.864 166.531 265.864 165.792C265.864 165.271 266.009 164.793 266.299 164.358C266.589 163.923 266.952 163.606 267.388 163.408C267.823 163.21 268.229 163.111 268.603 163.111ZM268.742 163.632C268.052 163.632 267.493 163.85 267.065 164.283C266.637 164.717 266.423 165.221 266.423 165.792C266.423 166.384 266.644 166.892 267.087 167.314C267.53 167.737 268.062 167.948 268.683 167.948C269.302 167.948 269.833 167.737 270.276 167.314C270.718 166.891 270.94 166.384 270.94 165.792C270.94 165.384 270.828 165.008 270.606 164.663C270.383 164.318 270.097 164.061 269.747 163.89C269.397 163.719 269.062 163.632 268.742 163.632ZM267.439 167.224V164.379H268.852C269.202 164.379 269.457 164.456 269.616 164.611C269.775 164.766 269.854 164.957 269.854 165.183C269.854 165.403 269.788 165.579 269.654 165.712C269.52 165.845 269.32 165.934 269.05 165.982C269.172 166.026 269.27 166.086 269.342 166.162C269.414 166.238 269.529 166.402 269.686 166.654L270.034 167.224H269.289L269.04 166.766C268.891 166.493 268.759 166.308 268.645 166.208C268.531 166.109 268.382 166.059 268.199 166.059H268.041V167.225H267.439V167.224ZM268.041 165.606H268.533C268.78 165.606 268.956 165.575 269.059 165.514C269.163 165.452 269.215 165.351 269.215 165.211C269.218 165.154 269.205 165.098 269.178 165.048C269.151 164.998 269.111 164.956 269.062 164.928C268.959 164.864 268.803 164.834 268.596 164.834H268.042V165.606H268.041Z" fill="white"/>
</svg>
