<svg width="422" height="422" viewBox="0 0 422 422" fill="none" xmlns="http://www.w3.org/2000/svg">
<path d="M10.9688 168.444C18.3567 164.821 26.9997 164.708 34.9183 166.34C40.9184 167.787 47.2859 171.205 49.5512 177.343C51.8166 184.415 51.3268 191.959 51.337 199.277C44.143 199.246 36.9489 199.277 29.7651 199.267C29.613 193.19 30.0916 187.083 29.4692 181.028C29.6018 176.84 22.2241 176.871 22.3262 181.058C21.5506 190.583 22.1425 200.17 21.9598 209.726C22.1333 215.822 21.52 222.001 22.4802 228.047C23.0721 230.469 26.0926 230.654 28.0008 229.833C29.4692 228.776 29.5008 226.836 29.6539 225.204C29.8886 220.667 29.7049 216.13 29.7661 211.594C36.9693 211.573 44.1634 211.584 51.3676 211.584C51.1533 218.471 51.7656 225.799 48.888 232.235C44.1123 240.189 34.1529 243.176 25.3772 242.9C17.6424 242.828 8.78504 241.032 3.97881 234.329C0.539962 228.909 0.662413 222.155 0.386897 215.957C0.437919 204.963 0.0195422 193.95 0.774661 182.978C1.09099 176.665 5.39721 171.092 10.9688 168.444V168.444ZM62.9495 166.709C73.3987 166.566 83.8581 166.576 94.3073 166.709C98.2768 191.61 102.522 216.469 106.563 241.359C99.8381 241.338 93.1134 241.359 86.3888 241.338C85.7969 236.678 85.3582 231.997 84.6337 227.348C82.2346 227.389 79.8274 227.389 77.4284 227.378C77.857 223.211 78.3264 219.044 78.7754 214.876C80.255 214.876 81.7244 214.866 83.204 214.866C81.8571 204.202 80.8468 193.486 79.2243 182.863C77.1223 202.385 74.5916 221.857 72.2854 241.358C65.5414 241.349 58.7861 241.349 52.0411 241.349C55.633 216.47 59.429 191.61 62.9495 166.709V166.709ZM110.257 166.637C117.41 166.617 124.573 166.627 131.737 166.627C131.747 186.539 131.737 206.441 131.747 226.352C136.125 226.374 140.502 226.364 144.88 226.364C144.9 231.362 144.89 236.35 144.89 241.349C133.349 241.36 121.808 241.339 110.267 241.349C110.246 216.449 110.267 191.538 110.257 166.637V166.637ZM149.992 166.637C157.166 166.617 164.35 166.627 171.534 166.627C171.554 186.539 171.533 206.441 171.544 226.352C175.881 226.374 180.217 226.364 184.554 226.364C184.564 231.362 184.564 236.35 184.564 241.349H150.002C149.982 216.449 150.002 191.538 149.992 166.637V166.637ZM211.279 166.637C220.769 166.566 230.269 166.637 239.748 167.058C244.739 167.418 249.963 167.766 254.413 170.302C258.423 172.724 260.882 177.312 260.922 182.003C261.576 194.997 261.199 208.032 261.24 221.037C260.984 226.405 261.546 232.646 257.678 236.925C253.371 240.886 247.189 241.082 241.669 241.308C231.546 241.421 221.413 241.308 211.279 241.349C211.269 216.449 211.279 191.538 211.279 166.637V166.637ZM232.821 179.488C232.831 195.89 232.831 212.283 232.821 228.683C234.872 228.232 237.994 228.653 238.901 226.21C240.167 220.821 239.493 215.197 239.667 209.695C239.493 200.704 240.045 191.671 239.35 182.69C239.055 179.457 235.199 179.591 232.821 179.488V179.488ZM266.617 166.637C273.76 166.616 280.903 166.637 288.046 166.627C288.056 184.774 288.046 202.921 288.046 221.067C288.088 223.469 288.036 225.892 288.485 228.263C288.812 230.982 293.577 230.859 293.782 228.129C294.261 225.79 294.211 223.387 294.24 221.016C294.22 202.89 294.25 184.764 294.22 166.637C301.363 166.607 308.506 166.637 315.659 166.627C315.639 184.076 315.721 201.525 315.618 218.963C315.394 223.767 315.924 229.053 313.089 233.23C309.71 238.926 303.15 241.82 296.802 242.498C288.762 243.421 280.017 242.468 273.282 237.602C269.047 234.574 266.833 229.36 266.883 224.206C266.371 205.025 266.729 185.831 266.617 166.637V166.637ZM320.281 166.627H367.455C367.465 171.626 367.455 176.614 367.465 181.613C363.2 181.613 358.936 181.602 354.68 181.623V241.349C347.475 241.349 340.271 241.36 333.068 241.339V181.623C328.823 181.613 324.578 181.602 320.333 181.623C320.241 176.624 320.291 171.626 320.281 166.627ZM371.324 166.627C377.935 166.709 384.548 166.453 391.161 166.761C395.221 180.176 399.661 193.468 403.864 206.842C404.835 210.148 406.425 213.38 406.323 216.901C406.272 225.183 406.313 233.467 406.294 241.749C399.671 241.761 393.058 241.761 386.435 241.749C386.435 233.806 386.406 225.862 386.457 217.907C386.478 216.122 386.364 214.305 385.804 212.589C380.947 197.286 376.159 181.951 371.324 166.627V166.627ZM402.232 166.637C408.803 166.616 415.376 166.637 421.947 166.627C417.313 180.771 412.743 194.935 408.109 209.078C405.17 199.636 401.875 190.285 399.211 180.77C399.834 175.998 401.274 171.359 402.232 166.637V166.637Z" fill="white"/>
<path d="M182.115 184.548C185.891 182.875 191.544 184.497 192.167 189.075C192.585 194.597 192.626 200.201 192.126 205.723C190.983 212.075 180.422 212.374 178.758 206.215C177.942 201.278 178.401 196.198 178.381 191.209C178.258 188.51 179.513 185.605 182.115 184.548ZM184.687 188.079C184.238 194.186 184.422 200.324 184.575 206.441L186.013 205.969C186.656 200.334 186.462 194.556 186.146 188.9C185.789 188.695 185.054 188.284 184.687 188.079V188.079ZM194.401 184.497C197.657 184.487 200.902 184.476 204.147 184.497C204.136 186.19 204.126 187.894 204.126 189.598L200.177 189.629C200.177 191.261 200.167 192.893 200.167 194.525C201.34 194.535 202.524 194.545 203.718 194.566C203.718 196.126 203.718 197.686 203.728 199.246L200.177 199.277C200.177 202.9 200.167 206.512 200.177 210.137C198.248 210.137 196.33 210.148 194.413 210.158C194.401 201.597 194.412 193.047 194.401 184.497V184.497Z" fill="white"/>
<path d="M414.037 234.672C415.422 234.672 416.562 235.11 417.456 235.985C418.351 236.862 418.798 237.895 418.798 239.087C418.798 240.301 418.344 241.341 417.435 242.205C416.526 243.069 415.434 243.503 414.157 243.503C412.873 243.503 411.779 243.072 410.873 242.208C409.968 241.345 409.516 240.305 409.516 239.087C409.516 238.23 409.755 237.443 410.234 236.726C410.713 236.009 411.312 235.487 412.032 235.161C412.75 234.835 413.419 234.672 414.037 234.672V234.672ZM414.266 235.531C413.129 235.531 412.205 235.889 411.498 236.603C410.792 237.318 410.438 238.147 410.438 239.088C410.438 240.063 410.803 240.9 411.535 241.595C412.265 242.29 413.144 242.639 414.17 242.639C415.191 242.639 416.068 242.29 416.799 241.595C417.53 240.899 417.895 240.063 417.895 239.088C417.895 238.416 417.711 237.796 417.344 237.228C416.977 236.661 416.504 236.237 415.926 235.954C415.349 235.673 414.796 235.531 414.266 235.531V235.531ZM412.116 241.446V236.76H414.449C415.026 236.76 415.447 236.887 415.709 237.143C415.972 237.399 416.102 237.713 416.102 238.085C416.102 238.447 415.993 238.737 415.773 238.956C415.552 239.175 415.221 239.322 414.776 239.401C414.978 239.473 415.138 239.573 415.257 239.698C415.377 239.822 415.567 240.093 415.825 240.508L416.399 241.447H415.17L414.758 240.692C414.512 240.243 414.295 239.937 414.107 239.773C413.918 239.61 413.673 239.528 413.371 239.528H413.11V241.448H412.116V241.446ZM413.11 238.782H413.922C414.33 238.782 414.62 238.731 414.791 238.63C414.962 238.528 415.048 238.361 415.048 238.131C415.053 238.038 415.032 237.945 414.987 237.862C414.942 237.78 414.876 237.711 414.795 237.664C414.625 237.56 414.369 237.509 414.026 237.509H413.111V238.782H413.11Z" fill="white"/>
</svg>
