<svg width="480" height="480" viewBox="0 0 480 480" fill="none" xmlns="http://www.w3.org/2000/svg">
<path fill-rule="evenodd" clip-rule="evenodd" d="M435.816 223.186H393.637C386.007 223.186 379.787 229.418 379.787 237.048V273.411C379.787 281.048 386.007 287.273 393.637 287.273H435.816C443.446 287.273 449.665 281.048 449.665 273.411V237.048C449.665 229.418 443.446 223.186 435.816 223.186ZM280.855 175.374H275.668V174.467C277.09 174.492 277.991 174.19 277.361 172.936C276.398 171.052 280.553 171.153 281.163 171.562C282.253 172.28 281.535 174.366 280.855 175.374ZM273.76 176.634H280.049C279.35 177.693 277.392 181.259 276.127 181.266C275.617 180.554 273.943 178.241 273.76 176.634ZM393.857 237.054H435.589V273.411H393.857V237.054ZM308.221 237.054H366.289V237.048C366.289 229.418 360.07 223.186 352.44 223.186H307.856C300.232 223.186 294.006 229.418 294.006 237.048V273.411C294.006 281.048 300.232 287.273 307.856 287.273H352.44C360.07 287.273 366.289 281.048 366.289 273.411V249.417H319.162C319.162 255.321 323.966 260.129 329.864 260.129H353.075V273.411H308.221V237.054ZM126.883 237.054H182.32V237.048C182.32 229.418 176.094 223.186 168.464 223.186H125.561C117.931 223.186 111.711 229.418 111.711 237.048V248.295C111.711 255.932 117.931 262.164 125.561 262.164H168.583V273.411H111.711C111.711 281.048 117.931 287.273 125.561 287.273H169.899C177.529 287.273 183.755 281.048 183.755 273.411V262.164C183.755 254.527 177.529 248.295 169.899 248.295H126.883V237.054ZM47.0637 237.054H99.3971V237.048C99.3971 229.418 93.171 223.186 85.541 223.186H43.3683C35.7383 223.186 29.5185 229.418 29.5185 237.048V273.411C29.5185 281.048 35.7383 287.273 43.3683 287.273H85.541C93.171 287.273 99.3971 281.048 99.3971 273.411H47.0637V237.054ZM294.189 169.061C293.912 169.199 293.597 169.338 293.15 169.42C291.173 172.224 292.363 171.896 288.875 174.234C288.882 178.928 289.02 179.438 290.115 183.597C290.147 183.698 290.128 183.792 290.078 183.881C290.021 183.969 289.945 184.025 289.845 184.044C289.001 184.227 287.786 184.536 287.087 184.668C287.106 184.819 287.44 187.478 287.062 189.457C286.477 192.563 279.086 199.368 277.317 199.715C274.874 200.194 272.148 198.039 267.88 196.161C266.709 195.644 262.762 193.048 260.697 192.362C258.985 191.788 257.266 195.966 259.394 197.081C260.382 197.604 261.963 198.31 262.46 199.601C263.939 203.439 262.227 218.246 259.18 221.226C257.732 221.214 256.517 219.884 255.441 220.231C253.52 221.283 254.735 227.156 255.441 228.176C267.251 240.337 265.847 249.341 270.858 256.064C273.149 256.064 271.645 258.49 273.382 261.338C273.842 262.8 273.244 265.283 272.998 266.228C272.998 267.45 272.998 268.673 272.998 269.895C272.872 270.279 272.746 270.657 272.614 271.042C272.614 272.113 272.614 273.178 272.614 274.249C272.262 275.812 271.878 277.91 271.55 279.372C270.845 282.447 273.552 284.841 271.928 287.771C271.928 289.573 271.934 289.214 270.858 290.676C270.858 293.473 270.203 299.371 270.858 301.45C271.317 302.9 276.568 309.037 277.884 309.629C281.056 311.04 285.734 310.738 284.217 315.741C274.931 318.595 269.001 314.128 264.046 314.059L263.82 314.909C260.647 314.915 258.116 314.134 257.424 313.907C257.417 313.05 258.45 306.472 258.796 305.426C259.155 304.865 259.507 304.305 259.866 303.744C260.25 302.622 259.476 294.412 259.407 292.207C257.43 290.751 257.046 286.315 257.046 283.877C256.473 281.993 256.473 279.756 256.353 277.305C256.303 276.158 255.617 274.47 256.051 273.027C256.347 272.044 257.455 271.615 257.732 270.809C257.732 269.895 257.732 268.975 257.732 268.061C258.255 265.169 258.091 263.834 256.353 262.101C252.01 262.157 251.411 262.365 249.026 258.66C248.283 257.514 242.208 247.917 241.622 247.659C236.567 245.454 237.574 246.311 235.365 242.391C235.27 242.391 233.923 242.839 232.739 244.622C230.926 247.325 227.728 256.115 226.815 259.196C226.306 260.916 226.815 262.819 226.047 264.243C225.493 265.27 223.693 265.604 223.303 266.304C221.527 269.498 222.856 269.246 219.481 271.502C218.877 272.283 218.858 273.455 218.417 274.4C218.159 274.759 217.908 275.119 217.649 275.471C217.083 276.694 218.254 278.912 218.033 279.674C217.448 281.678 216.68 283.694 215.899 285.559C214.351 289.233 214.552 294.11 212.991 296.365C212.21 297.5 210.315 296.391 208.874 297.323C208.792 298.111 206.5 303.353 206.047 304.815C206.047 307.587 206.047 310.366 206.047 313.139C206.481 314.544 207.665 315.88 207.312 317.656C206.935 319.547 200.362 319.521 196.793 319.005C194.407 318.658 193.689 316.9 193.727 314.859C193.777 312.458 198.631 296.832 198.335 295.798C194.652 291.64 199.324 287.368 200.709 283.493C201.376 281.609 200.967 278.975 201.697 277.229C202.994 274.86 204.291 272.491 205.587 270.122C207.961 267.885 206.903 267.772 208.187 265.768C209.302 264.029 210.649 262.857 209.868 260.192C208.294 254.829 211.7 247.23 211.927 241.623C211.323 240.986 209.27 241.188 209.012 239.48C208.496 235.996 210.334 229.833 211.467 229.247C211.971 228.989 212.55 229.216 212.997 228.939C212.997 226.33 210.403 211.8 212.374 211.063C213.589 210.609 216.378 210.37 216.919 210.124C216.888 209.507 216.46 208.183 215.95 208.114C215.081 207.994 213.306 207.66 211.889 207.333C207.552 206.331 211.568 189.205 211.618 189.136C212.815 187.554 218.354 189.684 219.028 186.993C220.879 184.63 217.599 175.532 223.92 164.329C226.054 160.542 230.139 156.723 234.905 158.343C236.504 158.885 235.535 161.184 238.342 158.727C238.412 157.29 237.744 156.087 237.348 154.902C232.683 140.971 248.49 133.416 259.564 141.38C260.804 141.885 261.534 142.13 262.46 142.83C263.071 145.986 266.199 151.601 263.077 155.287C261.793 155.558 260.231 156.276 259.256 156.969C259.237 158.242 259.407 159.414 259.64 160.176C259.847 160.863 260.244 161.134 259.218 161.55C259.086 161.6 259.142 162.029 259.211 162.193C261.799 162.697 264.55 161.714 266.281 161.014H268.34V158.412H269.328V156.377H270.31V159.899H272.885V161.014H311.041V162.999H312.728V155.74H314.151V161.644H317.4V165.015H327.504V164.014H329.185V164.448H333.956V167.259H329.185V167.7H327.504V166.698H317.4V167.7C315.914 167.7 314.434 167.7 312.949 167.7V167.019H311.041V169.061H294.189Z" fill="#231F20"/>
</svg>
