<svg width="116" height="73" viewBox="0 0 116 73" fill="none" xmlns="http://www.w3.org/2000/svg">
<g opacity="0.39">
<path d="M6.6216 69.6591L47.283 38.1036H91.4532C92.4025 38.1036 93.1749 37.3842 93.1749 36.5002V36.3655H97.1971V36.5002C97.1971 37.3842 97.9695 38.1036 98.9188 38.1036H112.128V69.6591H6.6216Z" fill="#ED1F34"/>
<path d="M98.9188 38.2383C97.8881 38.2383 97.0525 37.4601 97.0525 36.5002H93.3196C93.3196 37.4601 92.484 38.2383 91.4532 38.2383H47.3354L7.02112 69.5243H111.984V38.2383H98.9188Z" fill="#ED1F34"/>
<path d="M98.9188 34.762H111.984V3.47607H7.02112L47.3354 34.762H91.4532C92.484 34.762 93.3196 35.5402 93.3196 36.5001H97.0525C97.0525 35.5402 97.8881 34.762 98.9188 34.762Z" fill="white"/>
<path d="M3.58797 5.16138L43.9703 36.5001L3.58797 67.8389V5.16138Z" fill="#103B9B"/>
<path d="M43.7444 36.5002L3.7326 5.44897V67.5515L43.7444 36.5002Z" fill="#103B9B"/>
<path d="M113.85 0H1.86608C1.84583 0 1.82659 0.00228943 1.80663 0.00282825C1.76699 0.00404058 1.72722 0.00498451 1.68787 0.0084868C1.65547 0.0113156 1.62365 0.0165693 1.59183 0.0210145C1.56391 0.0249209 1.53614 0.0280188 1.50851 0.0328681C1.47365 0.0390645 1.44009 0.047416 1.40596 0.0554982C1.38137 0.0612904 1.35649 0.0664087 1.33204 0.0731439C1.29892 0.0824384 1.2671 0.0932141 1.23484 0.104125C1.20967 0.112477 1.18436 0.120426 1.15948 0.129855C1.13041 0.141035 1.1022 0.153697 1.07385 0.16609C1.04666 0.177809 1.01946 0.189259 0.992705 0.20246C0.967825 0.214718 0.943959 0.228592 0.919514 0.241793C0.891163 0.257283 0.862668 0.272371 0.835185 0.289478C0.812765 0.303353 0.791647 0.318708 0.76995 0.333256C0.742612 0.351845 0.715274 0.369897 0.688804 0.389698C0.66566 0.407344 0.643819 0.426607 0.621688 0.445196C0.598979 0.464189 0.57598 0.482239 0.553994 0.502579C0.523907 0.530193 0.495991 0.559828 0.468074 0.589328C0.456358 0.601586 0.443773 0.612766 0.432491 0.625293C0.431479 0.626236 0.430755 0.627449 0.430032 0.628527C0.390544 0.672979 0.352936 0.719047 0.318076 0.767271C0.314605 0.77212 0.311856 0.777239 0.308385 0.782088C0.278299 0.824655 0.249369 0.868029 0.223333 0.913289C0.21046 0.935516 0.199901 0.958684 0.18804 0.981449C0.173286 1.00974 0.157664 1.03776 0.144501 1.06699C0.132351 1.09433 0.12266 1.12222 0.111956 1.14996C0.101975 1.17556 0.0909822 1.20061 0.0823035 1.22715C0.0713104 1.26002 0.0633549 1.29342 0.0546761 1.32683C0.0488903 1.34865 0.0419473 1.36994 0.0370293 1.39189C0.0256023 1.44497 0.0169236 1.49831 0.0108484 1.55165C0.0107038 1.55461 0.00954663 1.55758 0.00940198 1.56081C0.00318221 1.6186 0.000289292 1.67652 0 1.73444C0.000289292 1.73552 0 1.73673 0 1.73808V71.2625C0 71.2639 0.000289292 71.265 0.000289292 71.2661C0.000289292 71.3242 0.00332685 71.3819 0.00969127 71.4397C0.0101252 71.4434 0.0109931 71.4469 0.011427 71.4504C0.0176468 71.5034 0.0258916 71.5562 0.0373186 71.6086C0.0419473 71.6309 0.0493242 71.6524 0.0549654 71.6744C0.0636442 71.7075 0.0715997 71.7407 0.0823035 71.7734C0.0911269 71.7997 0.102265 71.8252 0.112245 71.851C0.122949 71.8785 0.132351 71.9061 0.144646 71.9332C0.157809 71.9627 0.17372 71.9909 0.188763 72.0196C0.200479 72.0421 0.210604 72.0649 0.223333 72.0868C0.249948 72.1328 0.279022 72.1771 0.309976 72.2203C0.313014 72.2245 0.315183 72.2287 0.318221 72.2329C0.353081 72.2808 0.390544 72.3271 0.430177 72.3716C0.431189 72.3725 0.431913 72.3738 0.43278 72.3748C0.439145 72.3821 0.446522 72.388 0.452886 72.3949C0.48818 72.4332 0.524775 72.4703 0.563685 72.5055C0.582633 72.5226 0.602305 72.5384 0.621688 72.5545C0.650328 72.5785 0.678968 72.6019 0.709054 72.6242C0.732197 72.6413 0.755775 72.6573 0.779496 72.6732C0.808426 72.6925 0.837644 72.7109 0.867586 72.7288C0.892176 72.7434 0.916621 72.7575 0.941789 72.7709C0.97419 72.788 1.00731 72.804 1.04087 72.8192C1.06445 72.8301 1.08759 72.8412 1.11175 72.8509C1.15008 72.8666 1.18942 72.8807 1.22891 72.894C1.24931 72.901 1.26927 72.9085 1.28981 72.9149C1.33609 72.9287 1.38339 72.9402 1.43127 72.951C1.44617 72.9542 1.46121 72.9588 1.47611 72.9616C1.53137 72.9725 1.58778 72.9807 1.64491 72.9869C1.65316 72.9879 1.66111 72.9895 1.66921 72.9903C1.73445 72.9966 1.80012 73 1.8668 73H113.851C114.881 73 115.717 72.2218 115.717 71.2619V1.73821C115.716 0.778318 114.881 0 113.85 0ZM43.7444 36.5003L3.73259 67.5516V5.44916L43.7444 36.5003ZM7.02111 69.5244L47.3354 38.2384H91.4532C92.484 38.2384 93.3196 37.4602 93.3196 36.5003C93.3196 35.5404 92.484 34.7623 91.4532 34.7623H47.3354L7.02111 3.47629H111.984V34.7623H98.9188C97.8881 34.7623 97.0525 35.5404 97.0525 36.5003C97.0525 37.4602 97.8881 38.2384 98.9188 38.2384H111.984V69.5244H7.02111Z" fill="black"/>
</g>
</svg>
