<svg width="35" height="32" viewBox="0 0 35 32" fill="none" xmlns="http://www.w3.org/2000/svg">
<path d="M8.05326 6.74762L8.68715 6.21713C8.50857 6.10057 8.27693 6.03829 8.03815 6.04243L8.05326 6.74762ZM10.0364 9.17617C10.3563 9.48397 10.9551 9.53997 11.3737 9.30119C11.7923 9.0624 11.8723 8.61927 11.5524 8.31133L10.0364 9.17617ZM9.26342 9.74897L9.58127 10.4125C9.59393 10.409 9.6066 10.4054 9.61908 10.4017L9.26342 9.74897ZM12.5947 9.04264L12.74 9.73921L12.7556 9.7372L12.5947 9.04264ZM18.5168 9.09705L18.7124 8.4056L18.7067 8.40471L18.5168 9.09705ZM21.8628 9.84547L22.2244 9.19077L22.2235 9.19048L21.8628 9.84547ZM23.52 10.431L24.0628 9.8481C24.0421 9.83753 24.0208 9.82766 23.9991 9.81849L23.52 10.431ZM23.7239 10.5169L23.1818 11.1003C23.2145 11.1169 23.2486 11.1318 23.2838 11.1451L23.7239 10.5169ZM23.8142 10.5681L23.1291 11.0628C23.1908 11.1094 23.261 11.1495 23.3378 11.1819L23.8142 10.5681ZM19.7498 8.3972C19.4169 8.70101 19.4781 9.14503 19.8865 9.38905C20.2949 9.63292 20.8958 9.58452 21.2287 9.28071L19.7498 8.3972ZM23.3153 6.84418L23.3605 6.13936C23.1178 6.13204 22.8798 6.19361 22.6952 6.31139L23.3153 6.84418ZM28.9708 10.0596L29.9247 10.0657C29.9255 10.0278 29.9222 9.99015 29.9148 9.95285L28.9708 10.0596ZM25.4226 22.0143L25.9829 22.5822C26.1307 22.5021 26.2446 22.3925 26.3111 22.2664L25.4226 22.0143ZM18.9592 23.7493L18.0082 23.8102C18.0464 24.1666 18.4397 24.4435 18.9232 24.4544L18.9592 23.7493ZM19.7193 21.9112C19.6777 21.523 19.2181 21.2356 18.6929 21.2692C18.1677 21.3029 17.7757 21.6448 17.8173 22.0329L19.7193 21.9112ZM12.9911 21.9577C13.0665 21.5718 12.7048 21.2159 12.1833 21.163C11.6619 21.11 11.1781 21.3801 11.1027 21.766L12.9911 21.9577ZM11.6875 23.7032L11.6934 24.4086C12.1653 24.4039 12.5642 24.1448 12.6316 23.799L11.6875 23.7032ZM5.29978 21.8869L4.40074 22.1277C4.46195 22.2546 4.57101 22.3656 4.71542 22.4476L5.29978 21.8869ZM2.26218 9.89065L1.32292 9.77197C1.31392 9.80916 1.30911 9.8468 1.30831 9.88462L2.26218 9.89065ZM17.4867 13.4373L18.4403 13.455L18.4406 13.4434L17.4867 13.4373ZM8.05326 6.74762C7.41936 7.27812 7.41936 7.27812 7.41936 7.27812C7.41935 7.27826 7.41935 7.27826 7.41955 7.27826C7.41973 7.2784 7.41992 7.27855 7.42049 7.27883C7.42124 7.2794 7.42255 7.28026 7.42444 7.28154C7.42801 7.28382 7.43366 7.28752 7.441 7.29237C7.45567 7.30191 7.4775 7.3163 7.50572 7.33497C7.56236 7.37215 7.6442 7.42643 7.74466 7.49353C7.94595 7.628 8.22056 7.8136 8.51536 8.01866C9.12603 8.44316 9.75423 8.90474 10.0364 9.17617L11.5524 8.31133C11.1622 7.93592 10.4198 7.39926 9.82793 6.98758C9.52147 6.77441 9.23708 6.58226 9.02939 6.44351C8.92536 6.37413 8.84032 6.31786 8.78105 6.27882C8.75151 6.25916 8.72837 6.24391 8.71237 6.23351C8.70447 6.22838 8.69826 6.22425 8.69393 6.22154C8.69186 6.22012 8.69016 6.21912 8.68904 6.21827C8.68847 6.21798 8.68809 6.2177 8.68772 6.21741C8.68753 6.21741 8.68753 6.21727 8.68734 6.21713C8.68734 6.21713 8.68734 6.21713 8.68715 6.21713C8.68715 6.21713 8.68715 6.21713 8.05326 6.74762ZM7.12456 11.3224C8.01086 10.9008 8.8444 10.6089 9.58127 10.4125L8.94577 9.08546C8.07266 9.31826 7.10874 9.65773 6.10042 10.1375L7.12456 11.3224ZM9.61908 10.4017C10.7072 10.0726 11.7394 9.85847 12.74 9.73907L12.4493 8.34622C11.2948 8.48397 10.1216 8.72927 8.90795 9.09622L9.61908 10.4017ZM12.7556 9.7372C14.8197 9.4648 16.7092 9.55507 18.327 9.78938L18.7067 8.40471C16.9046 8.1437 14.7732 8.03962 12.4337 8.34824L12.7556 9.7372ZM18.3212 9.78849C19.5514 9.97252 20.61 10.2357 21.502 10.5005L22.2235 9.19048C21.2522 8.90227 20.0814 8.61025 18.7124 8.4056L18.3212 9.78849ZM21.5011 10.5002C21.9978 10.6479 22.5233 10.8241 23.0409 11.0436L23.9991 9.81849C23.3831 9.55721 22.7732 9.35412 22.2244 9.19077L21.5011 10.5002ZM22.9771 11.014C23.0676 11.0598 23.1535 11.0916 23.1816 11.1022C23.2218 11.1174 23.2042 11.1116 23.1818 11.1003L24.2659 9.93348C24.1757 9.8879 24.0899 9.85631 24.0621 9.84584C24.0222 9.83063 24.0401 9.83653 24.0628 9.8481L22.9771 11.014ZM23.2838 11.1451C23.2472 11.1314 23.2083 11.1128 23.171 11.0903C23.1388 11.0709 23.1162 11.0529 23.1291 11.0628L24.4994 10.0737C24.456 10.0407 24.3476 9.95827 24.1639 9.88867L23.2838 11.1451ZM23.3378 11.1819C23.525 11.2607 23.6683 11.3266 23.7622 11.3715C23.8091 11.394 23.8437 11.4111 23.865 11.4219C23.8757 11.4273 23.8831 11.4312 23.8872 11.4332C23.8892 11.4343 23.8904 11.4349 23.8907 11.435C23.8909 11.4352 23.8908 11.4352 23.8905 11.435C23.8904 11.4349 23.8902 11.4347 23.89 11.4346C23.8898 11.4346 23.8897 11.4346 23.8896 11.4344C23.8895 11.4344 23.8894 11.4343 23.8893 11.4343C23.8893 11.4343 23.8892 11.4343 23.8892 11.4343C23.8891 11.4342 23.8891 11.4342 24.4484 10.8597C25.0077 10.2853 25.0076 10.2852 25.0075 10.2852C25.0075 10.2852 25.0075 10.2852 25.0074 10.2852C25.0073 10.285 25.0072 10.285 25.0071 10.285C25.0069 10.2849 25.0067 10.2847 25.0065 10.2846C25.006 10.2843 25.0055 10.284 25.0049 10.2837C25.0038 10.2832 25.0024 10.2824 25.0008 10.2816C24.9976 10.2799 24.9935 10.2779 24.9885 10.2753C24.9786 10.2702 24.9652 10.2632 24.9483 10.2547C24.9145 10.2377 24.867 10.2141 24.8064 10.1851C24.6852 10.1272 24.5115 10.0474 24.2907 9.95438L23.3378 11.1819ZM21.2287 9.28071C21.5257 9.00969 22.1776 8.54619 22.8059 8.12106C23.1099 7.91528 23.393 7.72883 23.6002 7.5937C23.7037 7.5262 23.788 7.4717 23.8462 7.43425C23.8753 7.41539 23.8979 7.401 23.9131 7.39122C23.9206 7.38647 23.9264 7.38269 23.9301 7.38032C23.932 7.37906 23.9334 7.37822 23.9343 7.37766C23.9347 7.37738 23.9351 7.37724 23.9353 7.3771C23.9353 7.37696 23.9354 7.37696 23.9354 7.37696C23.9354 7.37696 23.9354 7.37696 23.9355 7.37696C23.9354 7.37696 23.9354 7.37697 23.3153 6.84418C22.6952 6.31139 22.6952 6.31139 22.6951 6.31139C22.6951 6.31153 22.695 6.31153 22.695 6.31153C22.6949 6.31167 22.6948 6.31167 22.6946 6.31181C22.6943 6.31195 22.6938 6.31223 22.6932 6.31265C22.6921 6.31335 22.6904 6.31447 22.6883 6.31586C22.6839 6.31866 22.6776 6.32271 22.6694 6.32788C22.6531 6.33836 22.6293 6.35359 22.5989 6.37315C22.5381 6.41242 22.4508 6.46887 22.344 6.53847C22.1307 6.67766 21.8384 6.87011 21.5234 7.0833C20.9135 7.49599 20.1524 8.02977 19.7498 8.3972L21.2287 9.28071ZM23.2701 7.54899C25.4928 7.61527 26.6465 8.30608 27.2679 8.92946C27.5902 9.25294 27.7837 9.57405 27.8957 9.81337C27.9513 9.93225 27.9858 10.0287 28.0056 10.0918C28.0154 10.1231 28.0216 10.146 28.0248 10.159C28.0265 10.1655 28.0274 10.1695 28.0276 10.1708C28.0278 10.1713 28.0278 10.1713 28.0276 10.1706C28.0275 10.1702 28.0274 10.1696 28.0273 10.1689C28.0272 10.1687 28.0271 10.1682 28.027 10.1678C28.027 10.1675 28.0269 10.1671 28.0269 10.1671C28.0268 10.1667 28.0267 10.1663 28.9708 10.0596C29.9148 9.95285 29.9147 9.95243 29.9147 9.95201C29.9146 9.95186 29.9145 9.95144 29.9145 9.95116C29.9143 9.95045 29.9142 9.94975 29.9141 9.94904C29.9138 9.94763 29.9134 9.94593 29.913 9.94409C29.9123 9.94042 29.9113 9.93604 29.9101 9.93081C29.9078 9.9205 29.9047 9.90721 29.9007 9.89124C29.8926 9.85916 29.8809 9.81605 29.8643 9.76345C29.8314 9.65826 29.7791 9.514 29.6992 9.34333C29.54 9.00324 29.2667 8.54871 28.8066 8.08706C27.8631 7.14034 26.189 6.22344 23.3605 6.13936L23.2701 7.54899ZM28.0169 10.0536C27.9608 12.6866 27.0989 15.6071 26.2345 17.8935C25.8043 19.0316 25.3776 20.0019 25.0588 20.6869C24.8995 21.0292 24.7674 21.2998 24.6755 21.4841C24.6296 21.5761 24.5937 21.6466 24.5696 21.6936C24.5575 21.7171 24.5484 21.7347 24.5424 21.7462C24.5394 21.7519 24.5372 21.7561 24.5358 21.7588C24.5351 21.7602 24.5346 21.7611 24.5343 21.7617C24.5342 21.7619 24.5341 21.7621 24.5341 21.7622C24.534 21.7622 24.534 21.7622 24.534 21.7622C24.534 21.7622 24.5341 21.7621 25.4226 22.0143C26.3111 22.2664 26.3111 22.2663 26.3112 22.2662C26.3113 22.2661 26.3113 22.2659 26.3114 22.2658C26.3116 22.2654 26.3118 22.265 26.3121 22.2645C26.3126 22.2635 26.3134 22.2621 26.3143 22.2603C26.3162 22.2566 26.3189 22.2514 26.3224 22.2447C26.3294 22.2312 26.3396 22.2116 26.3527 22.1861C26.3789 22.1351 26.4169 22.0604 26.4651 21.9638C26.5614 21.7708 26.6982 21.4903 26.8625 21.1373C27.1909 20.4317 27.6295 19.4343 28.0718 18.2643C28.9524 15.9348 29.8647 12.8779 29.9247 10.0657L28.0169 10.0536ZM24.8623 21.4463C23.3191 22.2826 21.8277 22.6817 20.7299 22.8721C20.181 22.9673 19.732 23.0101 19.427 23.0291C19.2747 23.0387 19.1587 23.0422 19.0848 23.0435C19.0478 23.0442 19.0214 23.0442 19.0062 23.0442C18.9986 23.0442 18.9938 23.0441 18.9919 23.0441C18.991 23.0441 18.9908 23.0441 18.9913 23.0441C18.9916 23.0441 18.992 23.0441 18.9926 23.0441C18.9929 23.0441 18.9933 23.0441 18.9937 23.0441C18.9939 23.0441 18.9943 23.0441 18.9944 23.0441C18.9947 23.0441 18.9951 23.0441 18.9592 23.7493C18.9232 24.4544 18.9236 24.4544 18.924 24.4544C18.9242 24.4544 18.9246 24.4544 18.9249 24.4544C18.9255 24.4545 18.9261 24.4545 18.9268 24.4545C18.9282 24.4545 18.9298 24.4545 18.9316 24.4546C18.9352 24.4546 18.9395 24.4547 18.9446 24.4548C18.9548 24.4549 18.968 24.455 18.9841 24.4551C19.0164 24.4552 19.0605 24.455 19.1157 24.454C19.226 24.4521 19.3807 24.4471 19.5741 24.435C19.9604 24.4109 20.5025 24.3584 21.153 24.2456C22.454 24.0199 24.1943 23.5515 25.9829 22.5822L24.8623 21.4463ZM19.9102 23.6884L19.7193 21.9112L17.8173 22.0329L18.0082 23.8102L19.9102 23.6884ZM11.1027 21.766L10.7433 23.6073L12.6316 23.799L12.9911 21.9577L11.1027 21.766ZM11.6875 23.7032C11.6816 22.9978 11.6819 22.9978 11.6823 22.9978C11.6824 22.9978 11.6827 22.9978 11.6829 22.9978C11.6834 22.9977 11.6837 22.9977 11.684 22.9977C11.6847 22.9977 11.6851 22.9977 11.6854 22.9977C11.6859 22.9977 11.6857 22.9977 11.6848 22.9977C11.6829 22.9977 11.6781 22.9977 11.6705 22.9977C11.6553 22.9975 11.6289 22.9971 11.592 22.996C11.5181 22.9938 11.4023 22.9888 11.2504 22.9773C10.9463 22.9544 10.4993 22.906 9.95448 22.8039C8.86535 22.5996 7.39135 22.1818 5.88414 21.3261L4.71542 22.4476C6.46205 23.4393 8.18197 23.9296 9.47311 24.1717C10.1185 24.2927 10.6583 24.352 11.0435 24.381C11.2363 24.3955 11.3908 24.4025 11.501 24.4058C11.5561 24.4074 11.6001 24.4081 11.6325 24.4085C11.6486 24.4086 11.6618 24.4087 11.672 24.4086C11.6771 24.4086 11.6814 24.4086 11.685 24.4086C11.6868 24.4086 11.6884 24.4086 11.6898 24.4086C11.6905 24.4086 11.6911 24.4086 11.6917 24.4086C11.692 24.4086 11.6924 24.4086 11.6926 24.4086C11.693 24.4085 11.6934 24.4086 11.6875 23.7032ZM5.29978 21.8869C6.19882 21.646 6.19882 21.6461 6.19882 21.6461C6.19882 21.6461 6.19882 21.6461 6.19882 21.6461C6.19882 21.646 6.19864 21.6458 6.19864 21.6455C6.19827 21.645 6.19791 21.644 6.19718 21.6427C6.1959 21.64 6.19389 21.6357 6.19115 21.6299C6.18568 21.6184 6.17728 21.6006 6.16614 21.577C6.14406 21.5298 6.11123 21.4589 6.06932 21.3662C5.98531 21.1809 5.86462 20.9087 5.72008 20.5644C5.43063 19.8756 5.04541 18.9001 4.66376 17.757C3.89707 15.4602 3.15991 12.5297 3.21606 9.89668L1.30831 9.88462C1.24833 12.6969 2.03008 15.7644 2.81111 18.1044C3.20352 19.2797 3.59942 20.2823 3.89759 20.992C4.04686 21.3469 4.17173 21.629 4.25974 21.8233C4.30366 21.9204 4.3385 21.9955 4.36259 22.0469C4.37463 22.0726 4.38394 22.0923 4.39033 22.1059C4.39362 22.1126 4.39599 22.1178 4.39782 22.1215C4.39873 22.1233 4.39928 22.1248 4.39983 22.1258C4.40001 22.1263 4.40038 22.1267 4.40037 22.127C4.40056 22.1272 4.40056 22.1274 4.40056 22.1274C4.40074 22.1276 4.40074 22.1277 5.29978 21.8869ZM2.26218 9.89065C3.20145 10.0092 3.20125 10.0096 3.20124 10.01C3.20124 10.0102 3.20104 10.0105 3.20104 10.0107C3.20103 10.0112 3.20083 10.0116 3.20082 10.0119C3.20062 10.0126 3.20041 10.0131 3.20041 10.0136C3.2002 10.0143 3.2002 10.0143 3.2004 10.0137C3.20062 10.0124 3.20166 10.0085 3.20371 10.002C3.20742 9.98905 3.21458 9.96624 3.22574 9.93499C3.24826 9.8722 3.28675 9.77621 3.34746 9.65806C3.46969 9.42023 3.67682 9.10165 4.01295 8.78234C4.66068 8.16698 5.84357 7.49095 8.06836 7.45282L8.03815 6.04243C5.20677 6.09069 3.49412 6.98617 2.51045 7.9207C2.03079 8.3764 1.73822 8.82721 1.56444 9.16533C1.47725 9.33495 1.41904 9.47851 1.38151 9.58326C1.36265 9.63563 1.34914 9.67858 1.33968 9.71055C1.33496 9.72646 1.33124 9.7397 1.32854 9.74999C1.32728 9.7552 1.32605 9.75957 1.3252 9.76323C1.32459 9.76506 1.32418 9.76675 1.32395 9.76816C1.32375 9.76887 1.32354 9.76957 1.32334 9.77028C1.32333 9.77056 1.32313 9.77098 1.32313 9.77112C1.32312 9.77154 1.32292 9.77197 2.26218 9.89065ZM19.764 16.0345C21.6741 16.0466 23.0763 14.8322 23.1052 13.4729L21.1975 13.4608C21.1825 14.1645 20.4908 14.6281 19.7941 14.6237L19.764 16.0345ZM23.1052 13.4729C23.1343 12.1088 21.7557 10.8814 19.8742 10.8694L19.8441 12.2803C20.5237 12.2846 21.2124 12.7616 21.1975 13.4608L23.1052 13.4729ZM19.8742 10.8694C17.964 10.8574 16.5618 12.0718 16.5328 13.4313L18.4406 13.4434C18.4556 12.7395 19.1473 12.2759 19.8441 12.2803L19.8742 10.8694ZM16.5332 13.4197C16.4731 14.799 17.8675 16.0225 19.764 16.0345L19.7941 14.6237C19.0839 14.6192 18.4104 14.1383 18.4402 13.455L16.5332 13.4197ZM11.4175 15.9817C13.3276 15.9938 14.73 14.7795 14.759 13.4201L12.8513 13.408C12.8363 14.1116 12.1446 14.5753 11.4476 14.5709L11.4175 15.9817ZM14.759 13.4201C14.7881 12.0559 13.409 10.8285 11.5277 10.8166L11.4976 12.2275C12.1774 12.2318 12.8662 12.7089 12.8513 13.408L14.759 13.4201ZM11.5277 10.8166C9.61755 10.8046 8.2154 12.0191 8.18641 13.3785L10.0942 13.3905C10.1092 12.6867 10.8009 12.2231 11.4976 12.2275L11.5277 10.8166ZM8.18641 13.3785C8.15742 14.7378 9.5074 15.9697 11.4175 15.9817L11.4476 14.5709C10.7509 14.5665 10.0792 14.0943 10.0942 13.3905L8.18641 13.3785ZM22.586 19.6252C19.8093 20.7181 17.5562 21.222 15.3724 21.209C13.1893 21.196 10.9616 20.6657 8.23905 19.5351L7.2958 20.7665C10.1756 21.9624 12.7237 22.6043 15.3433 22.6199C17.9623 22.6355 20.539 22.0245 23.473 20.8696L22.586 19.6252Z" fill="white"/>
</svg>
