<svg width="36" height="36" viewBox="0 0 36 36" fill="none" xmlns="http://www.w3.org/2000/svg">
<rect width="36" height="36" rx="18" fill="#4A208B"/>
<g clip-path="url(#clip0_27_72)">
<path d="M20.6426 9.31803H29.7691V8.5983H20.6426C18.7961 8.5983 17.2938 10.1006 17.2938 11.9471V12.8496H11.776C8.33651 12.8496 5.53833 15.6477 5.53833 19.0872C5.53833 22.5267 8.33651 25.3248 11.776 25.3248C13.8703 25.3248 15.7914 24.2968 16.9546 22.5647H18.3528C19.5161 24.2969 21.4371 25.3248 23.5315 25.3248C26.9709 25.3248 29.7691 22.5267 29.7691 19.0872C29.7691 15.6477 26.9709 12.8496 23.5315 12.8496H18.0136V11.9471C18.0136 10.4974 19.193 9.31803 20.6426 9.31803ZM18.0136 13.5693H23.5315C26.574 13.5693 29.0494 16.0446 29.0494 19.0872C29.0494 22.1298 26.574 24.6051 23.5315 24.6051C21.6194 24.6051 19.8704 23.6363 18.8531 22.0136L18.7473 21.8449H16.5601L16.4542 22.0136C15.4369 23.6363 13.688 24.6051 11.7759 24.6051C8.73329 24.6051 6.25797 22.1298 6.25797 19.0872C6.25797 16.0446 8.73329 13.5693 11.7759 13.5693H17.2938H18.0136Z" fill="#46F4FF"/>
<path d="M23.5315 14.289H15.3026V15.0087H23.5315V14.289Z" fill="#46F4FF"/>
<path d="M14.343 14.289H11.7759V15.0087H14.343V14.289Z" fill="#46F4FF"/>
<g filter="url(#filter0_d_27_72)">
<path d="M12.051 22.5462C11.5443 22.5462 11.071 22.4562 10.631 22.2762C10.191 22.0895 9.80431 21.8328 9.47098 21.5062C9.13764 21.1795 8.87764 20.7995 8.69098 20.3662C8.51098 19.9262 8.42098 19.4528 8.42098 18.9462C8.42098 18.4462 8.51098 17.9795 8.69098 17.5462C8.87764 17.1128 9.13431 16.7362 9.46098 16.4162C9.79431 16.0895 10.181 15.8362 10.621 15.6562C11.061 15.4762 11.5343 15.3862 12.041 15.3862C12.3943 15.3862 12.7376 15.4362 13.071 15.5362C13.411 15.6362 13.7176 15.7762 13.991 15.9562C14.2643 16.1362 14.4876 16.3428 14.661 16.5762L13.961 17.3062C13.761 17.1128 13.5543 16.9528 13.341 16.8262C13.1343 16.6995 12.921 16.6028 12.701 16.5362C12.481 16.4695 12.261 16.4362 12.041 16.4362C11.681 16.4362 11.3476 16.4995 11.041 16.6262C10.741 16.7528 10.4743 16.9295 10.241 17.1562C10.0143 17.3828 9.83764 17.6495 9.71098 17.9562C9.58431 18.2562 9.52098 18.5862 9.52098 18.9462C9.52098 19.2928 9.58764 19.6228 9.72098 19.9362C9.85431 20.2428 10.0376 20.5128 10.271 20.7462C10.511 20.9795 10.7843 21.1628 11.091 21.2962C11.4043 21.4295 11.7343 21.4962 12.081 21.4962C12.341 21.4962 12.5876 21.4595 12.821 21.3862C13.0543 21.3062 13.261 21.1962 13.441 21.0562C13.621 20.9162 13.761 20.7562 13.861 20.5762C13.961 20.3895 14.011 20.1928 14.011 19.9862V19.7862L14.161 19.9262H12.021V18.8562H15.121C15.1343 18.9295 15.1443 19.0028 15.151 19.0762C15.1576 19.1428 15.161 19.2095 15.161 19.2762C15.1676 19.3362 15.171 19.3962 15.171 19.4562C15.171 19.9162 15.091 20.3362 14.931 20.7162C14.771 21.0895 14.5476 21.4128 14.261 21.6862C13.981 21.9595 13.651 22.1728 13.271 22.3262C12.8976 22.4728 12.491 22.5462 12.051 22.5462Z" fill="white"/>
</g>
<g filter="url(#filter1_d_27_72)">
<path d="M22.6579 22.5385L19.8579 15.5385H21.0879L22.7579 19.7885C22.8379 19.9951 22.9079 20.1818 22.9679 20.3485C23.0346 20.5151 23.0913 20.6685 23.1379 20.8085C23.1846 20.9418 23.2279 21.0685 23.2679 21.1885C23.3079 21.3085 23.3479 21.4285 23.3879 21.5485L23.1279 21.5585C23.1746 21.3985 23.2246 21.2318 23.2779 21.0585C23.3313 20.8851 23.3913 20.6951 23.4579 20.4885C23.5313 20.2818 23.6179 20.0485 23.7179 19.7885L25.2679 15.5385H26.5279L23.7079 22.5385H22.6579Z" fill="white"/>
</g>
</g>
<defs>
<filter id="filter0_d_27_72" x="8.42096" y="15.3862" width="6.75" height="8.16" filterUnits="userSpaceOnUse" color-interpolation-filters="sRGB">
<feFlood flood-opacity="0" result="BackgroundImageFix"/>
<feColorMatrix in="SourceAlpha" type="matrix" values="0 0 0 0 0 0 0 0 0 0 0 0 0 0 0 0 0 0 127 0" result="hardAlpha"/>
<feOffset dy="1"/>
<feComposite in2="hardAlpha" operator="out"/>
<feColorMatrix type="matrix" values="0 0 0 0 0.807843 0 0 0 0 0.294118 0 0 0 0 0.584314 0 0 0 1 0"/>
<feBlend mode="normal" in2="BackgroundImageFix" result="effect1_dropShadow_27_72"/>
<feBlend mode="normal" in="SourceGraphic" in2="effect1_dropShadow_27_72" result="shape"/>
</filter>
<filter id="filter1_d_27_72" x="19.858" y="15.5385" width="6.66998" height="8" filterUnits="userSpaceOnUse" color-interpolation-filters="sRGB">
<feFlood flood-opacity="0" result="BackgroundImageFix"/>
<feColorMatrix in="SourceAlpha" type="matrix" values="0 0 0 0 0 0 0 0 0 0 0 0 0 0 0 0 0 0 127 0" result="hardAlpha"/>
<feOffset dy="1"/>
<feComposite in2="hardAlpha" operator="out"/>
<feColorMatrix type="matrix" values="0 0 0 0 0.807843 0 0 0 0 0.294118 0 0 0 0 0.584314 0 0 0 1 0"/>
<feBlend mode="normal" in2="BackgroundImageFix" result="effect1_dropShadow_27_72"/>
<feBlend mode="normal" in="SourceGraphic" in2="effect1_dropShadow_27_72" result="shape"/>
</filter>
<clipPath id="clip0_27_72">
<rect width="24.2308" height="24.2308" fill="white" transform="translate(5.53833 4.84616)"/>
</clipPath>
</defs>
</svg>
