<svg width="164" height="189" viewBox="0 0 164 189" fill="none" xmlns="http://www.w3.org/2000/svg">
<g clip-path="url(#clip0_27_113)">
<path d="M-2.72931 118.467V108.18H-0.203131C2.006 105.3 4.91061 102.934 7.24247 99.9503C7.53907 100.393 7.91748 100.722 7.9993 101.113C8.61445 103.597 9.84607 105.883 11.5789 107.758C12.6835 109.085 14.0846 110.34 14.5653 112.336L11.3232 112.634L15.0256 116.029L9.16523 116.852C9.65615 118.035 10.188 119.095 11.1494 119.476L16.8358 118.385L17.8586 120.052L23.1769 119.362L25.0485 121.245C26.0712 121.039 27.2576 120.72 28.4338 120.587C30.6838 120.35 32.9441 120.216 35.1941 120.021C35.4465 120.008 35.6905 119.926 35.8998 119.784C36.1352 119.591 36.4297 119.486 36.7334 119.486C37.0371 119.486 37.3315 119.591 37.5669 119.784C38.032 119.996 38.54 120.094 39.0499 120.072C40.6556 120.072 42.2511 120.072 44.4091 120.072L45.6875 118.344L46.9455 120.093C47.1091 119.928 47.1705 119.805 47.2319 119.805L54.3911 119.383L55.0354 116.863L59.7401 114.949V112.048C62.6344 111.554 68.9448 113.077 73.1176 113.828C69.1289 117.614 66.255 122.191 63.4833 126.841C64.414 127.767 63.6265 129.022 63.964 130.061C64.3015 131.1 64.9868 132.119 65.4368 133.24C65.8868 134.361 65.9993 135.297 66.3061 136.46L69.5175 135.688C70.3326 136.62 71.2145 137.49 72.1562 138.291C73.1793 139.01 74.2938 139.588 75.4699 140.009C76.312 140.156 77.1787 140.007 77.9245 139.587C80.67 138.783 83.583 138.759 86.3417 139.515C87.7429 139.844 89.1849 139.968 90.5759 140.174L92.0486 137.962L97.7044 139.844C98.2362 138.414 97.2953 137.129 97.1317 135.884C95.4646 134.166 92.877 134.968 91.2713 133.23L96.2317 128.94C95.8942 127.767 95.3419 126.831 95.0146 125.771C94.1736 123.422 93.1899 121.127 92.0691 118.899C91.8046 118.382 91.569 117.849 91.3634 117.305C90.7088 115.247 89.7474 113.293 88.9088 111.297C88.7337 110.82 88.4472 110.393 88.0734 110.051C87.6996 109.709 87.2494 109.462 86.761 109.332C84.6409 108.784 82.7385 107.596 81.3098 105.927L78.5484 110.382L75.0608 108.633L71.9005 111.842L61.7753 110.587C61.7753 110.402 61.7753 110.268 61.7753 110.227C63.3606 108.53 64.9561 106.843 66.5822 105.084C66.5822 104.394 66.8788 103.551 65.9277 102.851C68.9959 101.01 70.9289 98.1706 72.5857 95.1255H74.4574C74.8767 94.4671 74.3449 93.531 75.2654 93.1812C76.912 92.564 77.7711 91.0209 79.0291 89.9304C79.3055 89.5746 79.5518 89.1961 79.7654 88.7988L71.9721 93.0372L68.2186 92.0085C68.1828 92.4398 68.1828 92.8733 68.2186 93.3047C68.3251 93.757 68.4653 94.2006 68.6379 94.6317C65.1811 96.1748 61.6424 97.255 58.8196 99.4153H54.3093C52.9183 97.183 50.6376 96.216 48.1728 95.465L48.4898 94.5391C50.0751 95.5062 51.7729 95.0124 53.9615 95.2078L55.6388 97.4504C57.2241 96.7921 58.8298 96.6995 60.2003 95.7222C61.5387 94.8767 62.9329 94.124 64.3731 93.4693C64.4622 89.2196 65.3687 85.0275 67.0425 81.1245L65.4163 76.5158C62.7469 75.127 60.3026 73.8103 57.7355 72.5141C55.1684 71.2179 52.7342 69.8702 50.1671 68.7078C48.6228 67.9979 43.9182 65.4158 42.8341 64.2842C45.1606 64.79 47.4369 65.5062 49.6353 66.424C51.9263 67.1852 54.0638 68.3271 56.3854 68.9855C58.5434 69.6028 60.4764 70.8269 62.8288 71.043L59.6071 68.9855C59.7298 66.6709 58.6559 64.3871 59.0241 61.9902C59.0241 61.8153 59.106 61.5684 59.0241 61.4552C58.0014 60.1796 58.7173 58.7805 58.4616 57.3403H62.4912L64.0356 54.1204H67.3186C70.2067 52.6319 72.794 50.6155 74.9483 48.1743H77.6995C79.3154 47.1456 80.9211 46.0037 82.5575 44.9544C83.8871 44.0903 85.4315 44.5223 86.8326 44.3783L90.8009 41.1275H92.7032L93.7259 39.5021H97.1623C97.5714 38.2985 98.4817 38.1031 99.484 37.8973C101.584 37.5202 103.602 36.7751 105.447 35.6958C107.605 34.3071 109.538 32.6097 111.583 30.9843C112.032 31.4501 112.6 31.7822 113.224 31.9438C113.849 32.1053 114.505 32.0901 115.122 31.8998C116.536 31.3937 117.904 30.7673 119.213 30.0275L119.1 29.7704H122.312L125.278 27.5277C126.781 28.3919 128.121 28.1656 129.727 27.2808C131.332 26.3961 133.46 25.8098 135.239 27.7232H138.645C138.582 28.1012 138.582 28.4871 138.645 28.8651C140.22 32.6199 141.335 36.5703 143.278 40.1811C143.42 40.6082 143.479 41.0587 143.452 41.5082L138.676 42.3723V43.041L147.799 45.0984C148.126 46.6107 148.422 48.2669 148.821 49.8923C149.092 51.5488 149.627 53.1503 150.407 54.6347C151.941 56.9597 153.373 59.3669 155.009 61.6301C156.089 62.9669 157.246 64.2379 158.476 65.4364V65.9816C157.341 66.3417 158.128 67.3293 157.862 68.0391C156.553 71.1973 155.663 74.4995 154.549 77.7194C154.179 78.7032 154.07 79.7666 154.232 80.8056C154.835 84.4679 154.917 85.7126 154.17 88.1816C153.612 89.4088 153.236 90.7122 153.055 92.0496C152.974 92.6322 152.709 93.1731 152.299 93.5927C151.133 94.9918 149.905 96.3394 148.719 97.7076C149.026 98.8289 148.852 99.8165 149.169 100.897C150.192 104.425 152.288 107.522 153.127 111.122C153.207 111.323 153.327 111.506 153.48 111.658C153.633 111.81 153.816 111.929 154.017 112.007C154.853 112.27 155.703 112.487 156.563 112.655L158.476 114.198V117.439C157.371 118.714 156.809 120.412 155.408 121.389C153.154 123.102 151.066 125.024 149.169 127.129C148.975 127.314 148.821 127.582 148.596 127.685C146.244 128.775 145.681 130.833 145.63 133.168C145.63 133.981 145.63 134.783 145.63 135.555L143.646 137.54C142.736 141.202 142.501 144.978 138.829 147.498C138.777 146.766 138.55 146.057 138.167 145.432C137.784 144.807 137.257 144.284 136.63 143.908H134.585C131.455 142.097 130.985 141.758 129.133 138.919C128.593 138.238 128.323 137.38 128.377 136.511C128.597 135.686 128.631 134.821 128.479 133.981C128.299 132.913 128.279 131.824 128.418 130.75C128.446 130.234 128.363 129.717 128.174 129.236C127.985 128.754 127.695 128.32 127.323 127.963C126.873 127.52 126.444 127.068 126.024 126.635C125.122 126.554 124.213 126.571 123.314 126.687C122.467 126.937 121.65 127.282 120.88 127.716L118.834 126.605V129.691L119.571 129.876C120.593 131.933 120.593 131.933 119.847 133.816L121.258 136.696L118.517 138.157L120.655 139.927C119.489 141.984 118.323 143.918 118.814 146.233L114.559 151.88C113.573 152.235 112.538 152.436 111.491 152.477C110.608 152.172 109.781 151.72 109.047 151.14C109.092 150.902 109.092 150.658 109.047 150.42C107.338 146.134 106.083 141.679 105.303 137.129C104.281 135.709 104.403 133.713 103.064 132.715C101.223 133.929 102.849 136.1 101.489 137.417C102.511 138.528 101.857 139.865 102.327 140.945L106.418 150.471C106.418 151.798 106.418 153.557 106.418 155.203C106.388 155.809 106.489 156.414 106.713 156.977C106.937 157.54 107.28 158.047 107.717 158.464C108.094 158.925 108.436 159.413 108.74 159.925L110.939 160.728L112.319 158.917V157.888L113.7 155.831H114.723L116.114 157.888V164.184C115.212 165.137 114.398 166.17 113.68 167.27C112.984 168.556 111.532 168.916 110.826 170.089C110.633 170.46 110.421 170.82 110.192 171.169C109.077 172.558 108.903 174.255 108.617 175.912C108.144 178.367 107.459 180.776 106.572 183.113L102.767 184.604C102.317 183.01 104.168 183.637 104.23 182.465C103.626 181.755 102.972 180.86 102.184 180.068C100.497 178.309 98.7783 176.611 97.0703 174.924C96.298 174.128 95.7813 173.118 95.5873 172.023C95.1169 169.966 95.1885 167.455 92.5191 166.735V164.39C93.3155 164.522 94.0856 164.783 94.7998 165.161C95.1497 165.412 95.5538 165.575 95.9788 165.638C96.4038 165.7 96.8375 165.661 97.2442 165.521C95.843 163.67 95.3623 161.324 93.5725 160.09V156.674C95.618 156.448 97.1419 154.812 99.709 155.368L98.6862 154.247H92.8464L89.3588 156.932H84.3883C83.836 159.545 83.2735 162.168 82.7212 164.77L84.8383 165.748V168.525C83.2686 170.742 81.4985 172.809 79.5507 174.698L82.3734 178.031C81.6882 179.265 80.9314 180.654 80.0109 182.341L80.6655 187.639C78.0399 188.033 75.357 187.677 72.9233 186.61C71.8187 187.639 70.2232 187.639 69.3232 188.843H68.3004C68.505 185.407 67.9527 181.961 68.7709 178.555C68.9797 176.938 69.0003 175.302 68.8323 173.679L67.2879 170.686V167.527L70.7755 165.707L71.4403 162.682L70.755 161.468L66.0402 160.079V157.456C64.1174 156.983 62.5628 155.502 60.2719 155.995C59.5969 156.551 58.8196 157.23 58.0116 157.857C57.2036 158.485 56.8048 159.606 55.4854 159.73V156.17H55.2195L54.7491 154.452L56.4059 153.424L57.0605 151.932C56.564 151.514 55.976 151.221 55.3448 151.076C54.7136 150.931 54.0573 150.939 53.4297 151.099C52.182 152.323 50.791 153.485 51.0978 155.532C50.4228 156.397 50.1569 157.59 49.0012 158.053C48.5895 158.266 48.2049 158.529 47.8557 158.835L48.4796 162.425C46.7 164.709 44.2966 165.974 43.4784 168.669L45.2886 169.77C46.7921 169.143 48.1421 168.494 49.5433 168.001C50.9444 167.507 52.1104 166.252 54.1559 166.211L48.7148 173.782C48.7967 176.303 49.799 178.401 49.4001 180.664L46.7 182.413L39.776 176.241C40.267 172.373 40.7374 168.71 41.2386 164.709L39.6738 159.04H37.7715C37.2396 157.148 37.9044 155.44 38.4465 153.897C39.08 152.207 39.3485 150.401 39.234 148.599C35.5084 144.504 31.2573 140.927 26.5928 137.962L19.0756 140.215C17.6541 137.097 15.4859 134.382 12.7653 132.314C10.3823 130.648 9.1141 128.281 7.52884 126.358L8.04021 124.105L6.86405 122.49C5.52425 122.161 4.61401 121.965 3.72422 121.708C1.63427 121.282 -0.277595 120.227 -1.7577 118.683C-1.9418 118.478 -2.40203 118.539 -2.72931 118.467ZM139.218 88.6342C139.416 88.2198 139.58 87.7897 139.709 87.3483C139.795 87.0523 139.793 86.7371 139.702 86.4424C139.611 86.1476 139.435 85.8866 139.197 85.6921C140.517 84.8279 138.911 84.0564 139.095 83.1408C139.249 82.2053 139.064 81.2452 138.573 80.4353C137.418 78.707 137.551 76.5261 136.528 75.1065C137.07 72.5243 137.551 70.2097 137.99 68.142C137.223 65.1278 136.507 62.2988 135.689 59.0994C135.096 59.7475 134.39 60.1282 134.411 60.5602C134.472 61.7021 133.572 62.0725 133.01 62.7C132.754 62.988 132.232 63.0292 131.987 63.3069C129.26 65.8376 126.532 68.382 123.805 70.9401C123.692 71.0533 123.672 71.2487 123.559 71.4956L124.245 72.4318L112.841 79.8695V81.3611L109.067 83.4186V88.8194L106.582 90.8357H113.352L115.551 91.9776L118.875 91.1752C119.223 90.3934 119.622 89.4881 120.195 88.2125C120.838 87.2556 121.538 86.3384 122.291 85.4658C122.966 84.7251 123.498 83.5935 124.828 83.8301C125.983 82.6779 127.681 82.9454 129.011 82.2253C129.093 82.2253 129.297 82.3487 129.45 82.4207L129.512 82.9762C128.653 83.4392 127.804 83.9227 126.924 84.3753C125.157 85.3228 123.802 86.895 123.12 88.7885C122.261 91.2084 120.861 93.3975 119.029 95.1872H115.868L113.823 93.891V92.0496C111.051 91.6073 108.28 92.5125 105.641 91.4118C104.618 92.2142 103.422 92.5949 102.399 93.3973C100.425 94.9609 98.2567 96.2674 96.5999 98.222C96.5078 98.3351 96.3032 98.3557 96.1601 98.438L92.427 100.619H98.2874L99.6476 103.952H111.215L111.143 104.796C109.251 105.073 107.441 105.505 105.631 105.824C103.043 106.349 100.517 107.306 97.7862 107.038C96.7635 106.935 95.6691 106.802 94.3191 106.637L97.1214 108.694H99.7908L102.91 112.439L108.546 108.53L115.705 113.087L117.403 112.676C118.175 112.86 118.962 112.97 119.755 113.005C121.033 112.912 122.291 112.604 123.57 112.511C124.848 112.418 126.249 112.511 127.599 112.511C128.302 112.651 129.024 112.651 129.727 112.511C131.772 111.554 133.981 111.565 136.068 110.927C137.722 110.562 139.316 109.963 140.803 109.147C140.731 106.699 139.627 104.621 138.757 102.327L143.033 99.9605L140.148 98.2734L140.854 95.4444L139.709 95.0432C138.686 94.2408 140.731 93.7985 139.913 92.8932C139.637 92.5743 140.619 91.7101 140.015 90.8872C139.637 90.1904 139.361 89.4418 139.197 88.6651L139.218 88.6342Z" fill="black"/>
<path d="M93.4627 -0.810669C93.8235 0.239154 94.9678 -0.432733 95.6172 0.239154C96.0708 0.711575 97.0089 0.701074 97.7614 0.921537L97.1429 2.13933L98.8232 1.42545C100.05 1.90811 101.316 2.28047 102.606 2.53827C103.813 2.72723 104.823 3.85054 106.215 3.58809C108.703 4.80991 111.298 5.79057 113.967 6.5171C114.722 6.87363 115.524 7.11759 116.348 7.24147C117.997 7.15749 119.255 8.18632 120.698 8.63774C122.141 9.08916 123.43 10.3385 124.739 11.3043C127.739 13.5194 130.708 15.7765 133.584 18.2436C131.522 17.6032 129.151 18.2436 127.265 16.8159L123.244 18.1491V14.9997L119.946 16.3014L117.575 15.0522L116.41 18.0127C113.317 21.1621 113.317 21.1621 109.493 21.6765L110.761 19.6924C110.902 19.2138 110.865 18.6991 110.658 18.2461C110.451 17.7932 110.088 17.4336 109.637 17.2358L101.967 17.8552C100.826 18.8362 100.072 20.2048 99.8438 21.708C99.6067 22.9678 98.4006 24.0281 97.6893 25.099H95.4214L92.6999 26.8627C92.1765 27.7775 91.6016 28.6608 90.9783 29.5082C90.1021 30.5581 89.0712 31.4609 88.1228 32.4477C87.1744 33.4346 85.9477 34.4529 85.8137 36.1851C85.7621 36.8675 85.0508 37.4869 84.69 38.1693C84.4253 38.7224 84.1912 39.2902 83.989 39.87L82.051 40.7308C82.185 37.7808 82.4324 35.2613 84.5457 33.2771C85.4294 32.2985 86.2295 31.2448 86.9373 30.1276L86.1745 27.944C85.7312 27.5241 85.2982 26.4427 83.9169 26.7682L82.0922 28.8678V30.8835L77.9688 32.4582C78.6801 34.9778 78.5461 37.3714 76.474 39.4501H72.3506C68.825 43.4604 65.9386 47.6492 61.7739 50.3367L59.2173 49.8853L57.3618 55.7748L54.0836 55.3129L53.4238 54.5885L54.1145 52.2159H52.4033L52.3105 50.3682L55.1763 51.0506L53.9702 48.3316L57.6504 37.1824C57.1556 37.4029 56.8154 37.5499 56.4752 37.7178L51.7435 40.0589C51.2694 40.224 50.8077 40.424 50.3622 40.6573C46.4758 43.2609 46.1769 43.3659 42.1152 43.3764C42.641 45.644 44.7336 46.5259 46.0119 48.4575L50.1354 47.7122L54.0939 40.5524C54.2588 40.7623 54.465 40.9303 54.4341 41.0143C53.4032 44.2477 53.3311 47.8171 51.3415 50.7252C50.857 51.418 50.4137 52.1529 49.8261 53.0768C48.1664 52.2369 46.7335 51.439 45.1769 50.7252C42.0225 49.2344 38.8371 47.7856 35.5383 46.2529C35.5517 47.5299 35.7568 48.7974 36.1465 50.0113C36.8063 51.355 36.3939 52.6568 36.6516 53.7906L34.6518 57.0451C36.7135 57.0976 38.2495 58.0949 40.0329 57.7065C41.3627 57.4335 42.2286 58.5358 43.3523 58.8823C44.2269 59.3206 45.0273 59.8983 45.7233 60.5935V62.4622L44.9604 63.2285C41.8896 62.4639 38.8584 61.5424 35.8785 60.4675C32.7859 59.5227 29.6933 58.8613 26.4151 58.0319V60.667L31.7138 64.3834V66.2415L25.2193 72.8764L25.1575 74.1887C22.7762 75.669 20.3536 77.2437 17.859 78.6924C15.3643 80.1412 12.9726 81.359 10.3749 82.7553L12.1995 88.4558C9.8285 89.0962 7.35442 87.9414 4.98343 89.2747C3.54022 87.7734 3.50928 85.8627 3.55052 83.9416L2.79799 83.1752L-0.150288 85.2748V78.6295L2.46811 75.48C2.46811 74.4302 2.83923 73.0864 2.36503 72.131C1.89083 71.1757 2.36503 69.7584 1.33416 68.9816C1.27157 66.7223 0.744822 64.5015 -0.212138 62.4622C-0.407477 61.9452 -0.407477 61.3729 -0.212138 60.856C1.06614 57.9059 1.57126 54.557 3.54022 51.9429V49.7488C6.36479 46.5994 10.4573 45.1821 13.653 42.3056H17.4672C18.1167 38.4842 21.9309 38.3267 24.5287 36.2691H26.7553C28.5301 35.4363 30.0302 34.0982 31.0747 32.4162C33.5537 32.0124 35.9763 31.3075 38.2907 30.3166C39.7752 29.7497 41.2287 29.0883 42.6719 28.4374C42.766 28.3717 42.8451 28.2861 42.9038 28.1865C42.9625 28.0869 42.9995 27.9755 43.0121 27.86C43.8574 28.091 44.6821 27.5451 45.414 28.2484C45.5881 28.3756 45.7909 28.4557 46.0036 28.4814C46.2164 28.5071 46.432 28.4775 46.6304 28.3954C47.8984 27.3456 49.5169 27.5241 50.9085 26.9257C52.7538 26.1488 54.7846 25.8758 56.6505 25.1095C59.4647 23.9862 62.3821 23.2618 65.2685 22.4009C66.0072 22.237 66.6694 21.8228 67.1468 21.2259C67.6243 20.629 67.8889 19.8848 67.8972 19.115C65.8355 21.4771 63.3099 22.0965 60.4131 21.855C59.5417 21.7776 58.6638 21.8486 57.8153 22.065C56.1908 22.6402 54.484 22.9381 52.7641 22.9468C51.9703 22.8838 51.1662 22.9468 50.4653 22.9468L49.4344 24.6265H46.0325C45.0017 25.6764 43.9708 26.6632 42.9399 27.8705C42.0328 28.1225 40.8782 27.4086 40.0123 28.4584C38.8165 28.2379 37.5897 28.8048 36.363 28.091C35.7384 27.8678 35.0721 27.7924 34.4147 27.8705C31.6004 26.8207 29.3531 24.1646 26.343 26.9677V30.5581L23.7452 30.7365L21.4773 33.718C19.7145 34.5474 18.1888 32.4162 16.4982 34.054C16.4982 33.3716 16.3951 32.8152 16.6116 32.5317C18.7455 29.7182 20.1475 26.4427 22.1061 23.5242C22.711 22.5046 23.1954 21.4157 23.5493 20.2803C23.7024 19.8719 23.9373 19.5005 24.239 19.1896C24.5407 18.8788 24.9027 18.6352 25.3018 18.4746C29.0645 16.6164 32.7653 14.6217 36.5279 12.7635C39.6824 11.1993 42.8987 9.75055 46.4758 8.07084C47.352 8.23881 48.8262 7.48293 49.9704 8.59575L53.7125 6.83204C54.5864 6.48049 55.3396 5.87513 55.8784 5.0912C56.4173 4.30727 56.718 3.37935 56.7432 2.42278C57.7122 2.26531 58.7019 2.02385 59.7121 1.96086C63.0624 1.7404 66.4746 1.87688 69.7631 1.28898C72.032 1.0156 74.3132 0.861414 76.5977 0.827053C77.6286 0.743067 78.6595 0.407124 79.6182 0.302141C80.5769 0.197159 81.6799 0.396627 82.7108 -0.21227C82.9994 -0.39074 83.6386 0.00819113 83.8241 0.0606823C85.3498 -0.0652965 86.6384 -0.138784 87.9476 -0.275261C88.3908 -0.275261 89.0918 0.113176 89.1949 -0.810669H93.4627Z" fill="black"/>
<path d="M81.3877 121.279L82.8082 121.352L82.2444 122.221L83.3288 122.588V126.567C84.3373 128.724 85.2156 130.557 86.0614 132.421C86.9073 134.285 89.0652 135.437 89.7267 137.772C88.0459 137.615 86.4735 138.317 84.8469 137.353C84.4348 137.102 83.7625 137.27 83.1878 137.27C81.3877 137.27 79.5876 137.27 77.7658 137.27C76.6272 137.217 75.4885 136.987 74.3174 136.83V130.41C75.0658 129.538 75.6494 128.546 76.0416 127.478C76.6489 125.646 77.3971 123.719 79.6526 122.912C80.3575 122.63 80.8563 121.834 81.3877 121.279Z" fill="black"/>
<path d="M24.3706 79.628L26.5825 77.4572L27.1251 78.5477L29.0136 76.5094L31.8203 76.0814L32.6654 77.926C33.1767 76.9069 33.0723 75.5005 34.6374 74.6342C34.0266 77.8664 33.2006 81.0563 32.1646 84.1835C31.0482 85.4982 29.8796 86.8026 28.7841 88.1581C27.8824 89.2033 26.6668 89.9449 25.3096 90.2779C24.0993 90.655 22.8786 90.9913 21.4909 91.3887C21.4909 91.0524 21.3761 90.6754 21.4909 90.4613C22.5342 88.9123 23.5776 87.4039 24.6836 85.8243L18.4233 78.8432C20.5727 79.9031 22.5029 79.4751 24.3706 79.628Z" fill="black"/>
</g>
<defs>
<clipPath id="clip0_27_113">
<rect width="162.984" height="188.007" fill="white" transform="translate(0.90686 0.490356)"/>
</clipPath>
</defs>
</svg>
